<?xml version="1.0" encoding="UTF-8"?>
<svg xmlns="http://www.w3.org/2000/svg" viewBox="0 0 512 512">
  <title>Daewatuna Mark</title>
  <defs>
    <style>
      .stroke { stroke: #0B0B0B; stroke-width: 16; fill: none; stroke-linejoin: round; stroke-linecap: round; }
      .fill   { fill: #0B0B0B; }
    </style>
  </defs>

  <!-- Center group -->
  <g transform="translate(256,256)">
    <!-- 8-point star frame using two rotated rounded squares -->
    <rect x="-120" y="-120" width="240" height="240" rx="12" ry="12" class="stroke"/>
    <rect x="-120" y="-120" width="240" height="240" rx="12" ry="12" transform="rotate(45)" class="stroke"/>
    
    <!-- Inner arch container -->
    <path class="stroke" d="M0,-86
                             C45,-86 86,-45 86,0
                             L86,104
                             C86,122 72,136 54,136
                             L-54,136
                             C-72,136 -86,122 -86,104
                             L-86,0
                             C-86,-45 -45,-86 0,-86 Z"/>
    
    <!-- Alif vertical bar -->
    <path class="fill" d="M-8,-52 L8,-52 L8,96 C8,112 -8,126 -24,126 L-24,112 C-14,112 -8,106 -8,96 Z"/>
    
    <!-- Diamond dot -->
    <rect x="-8" y="-20" width="16" height="16" transform="rotate(45)" class="fill"/>
  </g>
</svg>
